<?xml version="1.0" encoding="UTF-8"?>
<svg width="600" height="400" viewBox="0 0 600 400" xmlns="http://www.w3.org/2000/svg">
    <!-- Background -->
    <rect width="600" height="400" fill="#f8f9fa" rx="20"/>
    
    <!-- Email Icon -->
    <g transform="translate(200,100)">
        <!-- Envelope -->
        <rect x="0" y="0" width="200" height="150" fill="#2937f0" rx="10"/>
        <path d="M0 0 L100 75 L200 0" fill="none" stroke="#ffffff" stroke-width="4"/>
        <path d="M0 150 L75 75 L100 95 L125 75 L200 150" fill="none" stroke="#ffffff" stroke-width="4"/>
        
        <!-- Checkmark -->
        <circle cx="150" cy="50" r="30" fill="#28a745"/>
        <path d="M135 50 L145 60 L165 40" fill="none" stroke="#ffffff" stroke-width="6" stroke-linecap="round"/>
        
        <!-- AI Circuit Lines -->
        <path d="M20 30 L40 30 L50 40 L70 20" fill="none" stroke="#9f1ae2" stroke-width="2"/>
        <path d="M20 60 L40 60 L50 50 L70 70" fill="none" stroke="#9f1ae2" stroke-width="2"/>
        <path d="M20 90 L40 90 L50 100 L70 80" fill="none" stroke="#9f1ae2" stroke-width="2"/>
    </g>
</svg>
