<?xml version="1.0" encoding="UTF-8"?>
<svg width="120" height="40" viewBox="0 0 120 40" xmlns="http://www.w3.org/2000/svg">
  <path d="M77.5 27.4c-9.6 7.1-23.5 10.9-35.5 10.9-16.8 0-31.9-6.2-43.3-16.5-.9-.8-.1-1.9 1-1.3 12.2 7.1 27.3 11.4 42.9 11.4 10.5 0 22.1-2.2 32.7-6.7 1.6-.7 2.9 1 1.4 2.2" fill="#FF9900"/>
  <path d="M81.2 23.1c-1.2-1.6-8.1-.7-11.2-.4-.9.1-1.1-.7-.2-1.3 5.5-3.9 14.5-2.7 15.5-1.4 1 1.3-.3 10.3-5.4 14.6-.8.7-1.5.3-1.2-.6 1.2-2.9 3.7-9.3 2.5-10.9" fill="#FF9900"/>
  <path d="M72.3 13.2v-2.4c0-.4.3-.6.6-.6h10.8c.3 0 .6.2.6.6v2.1c0 .3-.3.8-.8 1.4l-5.6 8c2.1-.1 4.2.3 6.1 1.3.4.2.5.6.6.9v2.6c0 .3-.4.7-.8.5-3.3-1.7-7.7-1.9-11.4 0-.4.2-.8-.2-.8-.5v-2.5c0-.3 0-.9.3-1.4l6.5-9.3h-5.7c-.3 0-.6-.2-.6-.6" fill="#000000"/>
  <path d="M25.9 23.5h-3.3c-.3 0-.6-.2-.6-.5V11.3c0-.3.3-.6.6-.6h3.1c.3 0 .6.2.6.5v1.5h.1c.8-2.1 2.3-3.1 4.4-3.1 2.1 0 3.4 1 4.3 3.1.8-2.1 2.6-3.1 4.6-3.1 1.4 0 2.9.6 3.8 1.9.9 1.3 1.4 3.2 1.4 4.9v9.9c0 .3-.3.6-.6.6h-3.3c-.3 0-.6-.2-.6-.5v-8.3c0-.7-.1-2.4-.1-3.1-.1-1.1-.7-1.4-1.6-1.4-.7 0-1.4.5-1.7 1.2-.3.8-.3 2.1-.3 3.1v8.5c0 .3-.3.6-.6.6h-3.3c-.3 0-.6-.2-.6-.5v-8.3c0-1.8.3-4.5-1.9-4.5-2.3 0-2.2 2.6-2.2 4.5v8.3c-.1.2-.4.5-.7.5" fill="#000000"/>
  <path d="M89.5 10.2c4.9 0 7.5 4.2 7.5 9.5 0 5.1-2.9 9.2-7.5 9.2-4.8 0-7.4-4.2-7.4-9.4 0-5.3 2.6-9.3 7.4-9.3m0 3.4c-2.4 0-2.6 3.3-2.6 5.4 0 2.1-.1 6.5 2.6 6.5 2.6 0 2.7-3.6 2.7-5.8 0-1.4-.1-3.1-.5-4.5-.3-1.2-1-1.6-2.2-1.6" fill="#000000"/>
  <path d="M102.6 23.5h-3.3c-.3 0-.6-.2-.6-.5V11.3c0-.3.3-.6.6-.6h3.1c.3 0 .5.2.6.5v1.7h.1c.9-2.3 2.2-3.4 4.5-3.4 1.5 0 2.9.5 3.8 2 .9 1.3.9 3.5.9 5.1v10.3c-.2.2-.4.5-.7.5h-3.3c-.3 0-.5-.2-.6-.5v-8.9c0-1.8.2-4.4-2-4.4-.8 0-1.5.5-1.8 1.3-.4 1-.5 2-.5 3.1v8.8c-.1.4-.4.7-.8.7" fill="#000000"/>
  <path d="M71.6 16.4c0 1.3 0 2.3-.6 3.4-.5.9-1.3 1.5-2.2 1.5-1.2 0-1.9-.9-1.9-2.3 0-2.7 2.4-3.2 4.7-3.2v.6m3.2 7.8c-.2.2-.5.2-.8.1-1.1-.9-1.3-1.3-1.9-2.2-1.8 1.9-3.1 2.4-5.5 2.4-2.8 0-5-1.7-5-5.2 0-2.7 1.5-4.5 3.6-5.4 1.8-.8 4.4-.9 6.4-1.1v-.4c0-.8.1-1.8-.4-2.5-.4-.6-1.2-.9-1.9-.9-1.3 0-2.5.7-2.7 2.1-.1.3-.3.6-.6.6l-3.2-.3c-.3-.1-.6-.3-.5-.7C62.6 8 66 7 69.1 7c1.6 0 3.7.4 4.9 1.6 1.6 1.5 1.4 3.4 1.4 5.6v5.1c0 1.5.6 2.2 1.2 3 .2.3.3.7 0 .9-.8.7-2.2 1.9-3 2.6l.2-.6" fill="#000000"/>
  <path d="M12.8 16.4c0 1.3 0 2.3-.6 3.4-.5.9-1.3 1.5-2.2 1.5-1.2 0-1.9-.9-1.9-2.3 0-2.7 2.4-3.2 4.7-3.2v.6m3.2 7.8c-.2.2-.5.2-.8.1-1.1-.9-1.3-1.3-1.9-2.2-1.8 1.9-3.1 2.4-5.5 2.4C5 24.5 2.8 22.8 2.8 19.3c0-2.7 1.5-4.5 3.6-5.4 1.8-.8 4.4-.9 6.4-1.1v-.4c0-.8.1-1.8-.4-2.5-.4-.6-1.2-.9-1.9-.9-1.3 0-2.5.7-2.7 2.1-.1.3-.3.6-.6.6l-3.2-.3c-.3-.1-.6-.3-.5-.7C3.8 8 7.2 7 10.3 7c1.6 0 3.7.4 4.9 1.6 1.6 1.5 1.4 3.4 1.4 5.6v5.1c0 1.5.6 2.2 1.2 3 .2.3.3.7 0 .9-.8.7-2.2 1.9-3 2.6l.2-.6" fill="#000000"/>
</svg>
