<?xml version="1.0" encoding="UTF-8"?>
<svg width="120" height="40" viewBox="0 0 120 40" xmlns="http://www.w3.org/2000/svg">
  <path d="M67.2 13.7c-.3.3-.8.5-1.4.5-.6 0-1.1-.2-1.4-.5-.3-.3-.5-.8-.5-1.4s.2-1.1.5-1.4c.3-.3.8-.5 1.4-.5.6 0 1.1.2 1.4.5.3.3.5.8.5 1.4s-.2 1.1-.5 1.4zm-2.8 16.6V15.9h2.8v14.4h-2.8zm-9.1 0h-2.8V15.9h2.7v2.2c.6-1.6 1.9-2.4 3.9-2.4 1.5 0 2.7.5 3.6 1.6.9 1.1 1.3 2.5 1.3 4.4v8.6h-2.8v-8c0-1.2-.3-2.1-.8-2.8-.5-.7-1.3-1-2.3-1-1 0-1.8.3-2.3 1-.5.7-.8 1.6-.8 2.8v8h.3zm-11.1-7.3c0 1.5.4 2.7 1.1 3.6.7.9 1.7 1.3 2.9 1.3s2.2-.4 2.9-1.3c.7-.9 1.1-2.1 1.1-3.6s-.4-2.7-1.1-3.6c-.7-.9-1.7-1.3-2.9-1.3s-2.2.4-2.9 1.3c-.7.9-1.1 2.1-1.1 3.6zm-2.9 0c0-2.2.7-4 2.2-5.4 1.5-1.4 3.3-2.1 5.6-2.1s4.2.7 5.6 2.1c1.5 1.4 2.2 3.2 2.2 5.4s-.7 4-2.2 5.4c-1.5 1.4-3.3 2.1-5.6 2.1s-4.2-.7-5.6-2.1c-1.4-1.4-2.2-3.2-2.2-5.4zm-3.7 7.3h-2.8V15.9H37v2.2c.6-1.6 1.9-2.4 3.9-2.4 1.5 0 2.7.5 3.6 1.6.9 1.1 1.3 2.5 1.3 4.4v8.6h-2.8v-8c0-1.2-.3-2.1-.8-2.8-.5-.7-1.3-1-2.3-1-1 0-1.8.3-2.3 1-.5.7-.8 1.6-.8 2.8v8h.3zm-11.1-7.3c0 1.5.4 2.7 1.1 3.6.7.9 1.7 1.3 2.9 1.3s2.2-.4 2.9-1.3c.7-.9 1.1-2.1 1.1-3.6s-.4-2.7-1.1-3.6c-.7-.9-1.7-1.3-2.9-1.3s-2.2.4-2.9 1.3c-.7.9-1.1 2.1-1.1 3.6zm-2.9 0c0-2.2.7-4 2.2-5.4 1.5-1.4 3.3-2.1 5.6-2.1s4.2.7 5.6 2.1c1.5 1.4 2.2 3.2 2.2 5.4s-.7 4-2.2 5.4c-1.5 1.4-3.3 2.1-5.6 2.1s-4.2-.7-5.6-2.1c-1.4-1.4-2.2-3.2-2.2-5.4z" fill="#000000"/>
  <path d="M94.7 16.8c-.7-.7-1.5-1.1-2.4-1.1-.9 0-1.7.4-2.4 1.1-.7.7-1 1.6-1 2.7 0 1.1.3 2 1 2.7.7.7 1.5 1.1 2.4 1.1.9 0 1.7-.4 2.4-1.1.7-.7 1-1.6 1-2.7 0-1.1-.3-2-1-2.7zm1.9 6.3c-1.2 1.2-2.6 1.8-4.3 1.8s-3.1-.6-4.3-1.8c-1.2-1.2-1.8-2.7-1.8-4.5s.6-3.3 1.8-4.5c1.2-1.2 2.6-1.8 4.3-1.8s3.1.6 4.3 1.8c1.2 1.2 1.8 2.7 1.8 4.5s-.6 3.3-1.8 4.5z" fill="#000000"/>
</svg>
