<?xml version="1.0" encoding="UTF-8"?>
<svg width="120" height="40" viewBox="0 0 120 40" xmlns="http://www.w3.org/2000/svg">
  <path d="M40.9 16.5c0-1.1-.3-2.3-.9-3.3-1.2-2.1-3.4-3.3-5.8-3.3-2.4 0-4.6 1.2-5.8 3.3-.6 1-.9 2.2-.9 3.3 0 1.1.3 2.3.9 3.3 1.2 2.1 3.4 3.3 5.8 3.3 2.4 0 4.6-1.2 5.8-3.3.6-1 .9-2.2.9-3.3zm-2.5 0c0 .7-.2 1.4-.5 2-.7 1.3-2 2-3.7 2-1.6 0-3-.8-3.7-2-.3-.6-.5-1.3-.5-2s.2-1.4.5-2c.7-1.3 2-2 3.7-2 1.6 0 3 .8 3.7 2 .3.6.5 1.3.5 2z" fill="#EA4335"/>
  <path d="M54.7 16.5c0-1.1-.3-2.3-.9-3.3-1.2-2.1-3.4-3.3-5.8-3.3-2.4 0-4.6 1.2-5.8 3.3-.6 1-.9 2.2-.9 3.3 0 1.1.3 2.3.9 3.3 1.2 2.1 3.4 3.3 5.8 3.3 2.4 0 4.6-1.2 5.8-3.3.6-1 .9-2.2.9-3.3zm-2.5 0c0 .7-.2 1.4-.5 2-.7 1.3-2 2-3.7 2-1.6 0-3-.8-3.7-2-.3-.6-.5-1.3-.5-2s.2-1.4.5-2c.7-1.3 2-2 3.7-2 1.6 0 3 .8 3.7 2 .3.6.5 1.3.5 2z" fill="#FBBC05"/>
  <path d="M68.5 16.5c0-1.1-.3-2.3-.9-3.3-1.2-2.1-3.4-3.3-5.8-3.3-2.4 0-4.6 1.2-5.8 3.3-.6 1-.9 2.2-.9 3.3 0 1.1.3 2.3.9 3.3 1.2 2.1 3.4 3.3 5.8 3.3 2.4 0 4.6-1.2 5.8-3.3.6-1 .9-2.2.9-3.3zm-2.5 0c0 .7-.2 1.4-.5 2-.7 1.3-2 2-3.7 2-1.6 0-3-.8-3.7-2-.3-.6-.5-1.3-.5-2s.2-1.4.5-2c.7-1.3 2-2 3.7-2 1.6 0 3 .8 3.7 2 .3.6.5 1.3.5 2z" fill="#4285F4"/>
  <path d="M82.3 16.5c0-1.1-.3-2.3-.9-3.3-1.2-2.1-3.4-3.3-5.8-3.3-2.4 0-4.6 1.2-5.8 3.3-.6 1-.9 2.2-.9 3.3 0 1.1.3 2.3.9 3.3 1.2 2.1 3.4 3.3 5.8 3.3 2.4 0 4.6-1.2 5.8-3.3.6-1 .9-2.2.9-3.3zm-2.5 0c0 .7-.2 1.4-.5 2-.7 1.3-2 2-3.7 2-1.6 0-3-.8-3.7-2-.3-.6-.5-1.3-.5-2s.2-1.4.5-2c.7-1.3 2-2 3.7-2 1.6 0 3 .8 3.7 2 .3.6.5 1.3.5 2z" fill="#34A853"/>
  <path d="M96.1 16.5c0-1.1-.3-2.3-.9-3.3-1.2-2.1-3.4-3.3-5.8-3.3-2.4 0-4.6 1.2-5.8 3.3-.6 1-.9 2.2-.9 3.3 0 1.1.3 2.3.9 3.3 1.2 2.1 3.4 3.3 5.8 3.3 2.4 0 4.6-1.2 5.8-3.3.6-1 .9-2.2.9-3.3zm-2.5 0c0 .7-.2 1.4-.5 2-.7 1.3-2 2-3.7 2-1.6 0-3-.8-3.7-2-.3-.6-.5-1.3-.5-2s.2-1.4.5-2c.7-1.3 2-2 3.7-2 1.6 0 3 .8 3.7 2 .3.6.5 1.3.5 2z" fill="#EA4335"/>
</svg>
