<?xml version="1.0" encoding="UTF-8"?>
<svg width="120" height="40" viewBox="0 0 120 40" xmlns="http://www.w3.org/2000/svg">
  <path d="M23.4 11.6c-1.2 0-2.2.4-3 1.2-.8.8-1.2 1.8-1.2 3s.4 2.2 1.2 3c.8.8 1.8 1.2 3 1.2s2.2-.4 3-1.2c.8-.8 1.2-1.8 1.2-3s-.4-2.2-1.2-3c-.8-.8-1.8-1.2-3-1.2z" fill="#0668E1"/>
  <path d="M42.4 11.6c-1.2 0-2.2.4-3 1.2-.8.8-1.2 1.8-1.2 3s.4 2.2 1.2 3c.8.8 1.8 1.2 3 1.2s2.2-.4 3-1.2c.8-.8 1.2-1.8 1.2-3s-.4-2.2-1.2-3c-.8-.8-1.8-1.2-3-1.2z" fill="#0668E1"/>
  <path d="M61.4 11.6c-1.2 0-2.2.4-3 1.2-.8.8-1.2 1.8-1.2 3s.4 2.2 1.2 3c.8.8 1.8 1.2 3 1.2s2.2-.4 3-1.2c.8-.8 1.2-1.8 1.2-3s-.4-2.2-1.2-3c-.8-.8-1.8-1.2-3-1.2z" fill="#0668E1"/>
  <path d="M80.4 11.6c-1.2 0-2.2.4-3 1.2-.8.8-1.2 1.8-1.2 3s.4 2.2 1.2 3c.8.8 1.8 1.2 3 1.2s2.2-.4 3-1.2c.8-.8 1.2-1.8 1.2-3s-.4-2.2-1.2-3c-.8-.8-1.8-1.2-3-1.2z" fill="#0668E1"/>
  <path d="M99.4 11.6c-1.2 0-2.2.4-3 1.2-.8.8-1.2 1.8-1.2 3s.4 2.2 1.2 3c.8.8 1.8 1.2 3 1.2s2.2-.4 3-1.2c.8-.8 1.2-1.8 1.2-3s-.4-2.2-1.2-3c-.8-.8-1.8-1.2-3-1.2z" fill="#0668E1"/>
  <path d="M32.9 20.8c-1.2 0-2.2.4-3 1.2-.8.8-1.2 1.8-1.2 3s.4 2.2 1.2 3c.8.8 1.8 1.2 3 1.2s2.2-.4 3-1.2c.8-.8 1.2-1.8 1.2-3s-.4-2.2-1.2-3c-.8-.8-1.8-1.2-3-1.2z" fill="#0668E1"/>
  <path d="M51.9 20.8c-1.2 0-2.2.4-3 1.2-.8.8-1.2 1.8-1.2 3s.4 2.2 1.2 3c.8.8 1.8 1.2 3 1.2s2.2-.4 3-1.2c.8-.8 1.2-1.8 1.2-3s-.4-2.2-1.2-3c-.8-.8-1.8-1.2-3-1.2z" fill="#0668E1"/>
  <path d="M70.9 20.8c-1.2 0-2.2.4-3 1.2-.8.8-1.2 1.8-1.2 3s.4 2.2 1.2 3c.8.8 1.8 1.2 3 1.2s2.2-.4 3-1.2c.8-.8 1.2-1.8 1.2-3s-.4-2.2-1.2-3c-.8-.8-1.8-1.2-3-1.2z" fill="#0668E1"/>
  <path d="M89.9 20.8c-1.2 0-2.2.4-3 1.2-.8.8-1.2 1.8-1.2 3s.4 2.2 1.2 3c.8.8 1.8 1.2 3 1.2s2.2-.4 3-1.2c.8-.8 1.2-1.8 1.2-3s-.4-2.2-1.2-3c-.8-.8-1.8-1.2-3-1.2z" fill="#0668E1"/>
</svg>
